<svg id="visual" viewBox="0 0 900 600" width="900" height="600" xmlns="http://www.w3.org/2000/svg" xmlns:xlink="http://www.w3.org/1999/xlink" version="1.1"><rect x="0" y="0" width="900" height="600" fill="#001220"></rect><path d="M0 326L21.5 330.7C43 335.3 86 344.7 128.8 341.3C171.7 338 214.3 322 257.2 326.7C300 331.3 343 356.7 385.8 355.3C428.7 354 471.3 326 514.2 316.5C557 307 600 316 642.8 320.7C685.7 325.3 728.3 325.7 771.2 336.3C814 347 857 368 878.5 378.5L900 389L900 601L878.5 601C857 601 814 601 771.2 601C728.3 601 685.7 601 642.8 601C600 601 557 601 514.2 601C471.3 601 428.7 601 385.8 601C343 601 300 601 257.2 601C214.3 601 171.7 601 128.8 601C86 601 43 601 21.5 601L0 601Z" fill="#69f6fa"></path><path d="M0 417L21.5 408.5C43 400 86 383 128.8 375C171.7 367 214.3 368 257.2 375.3C300 382.7 343 396.3 385.8 393.2C428.7 390 471.3 370 514.2 365.2C557 360.3 600 370.7 642.8 371C685.7 371.3 728.3 361.7 771.2 356.2C814 350.7 857 349.3 878.5 348.7L900 348L900 601L878.5 601C857 601 814 601 771.2 601C728.3 601 685.7 601 642.8 601C600 601 557 601 514.2 601C471.3 601 428.7 601 385.8 601C343 601 300 601 257.2 601C214.3 601 171.7 601 128.8 601C86 601 43 601 21.5 601L0 601Z" fill="#4dcfe2"></path><path d="M0 371L21.5 384.2C43 397.3 86 423.7 128.8 435.5C171.7 447.3 214.3 444.7 257.2 437.8C300 431 343 420 385.8 414.2C428.7 408.3 471.3 407.7 514.2 405.3C557 403 600 399 642.8 397.7C685.7 396.3 728.3 397.7 771.2 405.8C814 414 857 429 878.5 436.5L900 444L900 601L878.5 601C857 601 814 601 771.2 601C728.3 601 685.7 601 642.8 601C600 601 557 601 514.2 601C471.3 601 428.7 601 385.8 601C343 601 300 601 257.2 601C214.3 601 171.7 601 128.8 601C86 601 43 601 21.5 601L0 601Z" fill="#3aa9c6"></path><path d="M0 422L21.5 424C43 426 86 430 128.8 436.2C171.7 442.3 214.3 450.7 257.2 457.7C300 464.7 343 470.3 385.8 467.5C428.7 464.7 471.3 453.3 514.2 445.5C557 437.7 600 433.3 642.8 436.5C685.7 439.7 728.3 450.3 771.2 448.3C814 446.3 857 431.7 878.5 424.3L900 417L900 601L878.5 601C857 601 814 601 771.2 601C728.3 601 685.7 601 642.8 601C600 601 557 601 514.2 601C471.3 601 428.7 601 385.8 601C343 601 300 601 257.2 601C214.3 601 171.7 601 128.8 601C86 601 43 601 21.5 601L0 601Z" fill="#3085a6"></path><path d="M0 470L21.5 471.7C43 473.3 86 476.7 128.8 482C171.7 487.3 214.3 494.7 257.2 489.7C300 484.7 343 467.3 385.8 467.3C428.7 467.3 471.3 484.7 514.2 488.8C557 493 600 484 642.8 475.2C685.7 466.3 728.3 457.7 771.2 461.7C814 465.7 857 482.3 878.5 490.7L900 499L900 601L878.5 601C857 601 814 601 771.2 601C728.3 601 685.7 601 642.8 601C600 601 557 601 514.2 601C471.3 601 428.7 601 385.8 601C343 601 300 601 257.2 601C214.3 601 171.7 601 128.8 601C86 601 43 601 21.5 601L0 601Z" fill="#2a6284"></path><path d="M0 491L21.5 493.8C43 496.7 86 502.3 128.8 506.8C171.7 511.3 214.3 514.7 257.2 512.5C300 510.3 343 502.7 385.8 504C428.7 505.3 471.3 515.7 514.2 513.8C557 512 600 498 642.8 489.5C685.7 481 728.3 478 771.2 475.7C814 473.3 857 471.7 878.5 470.8L900 470L900 601L878.5 601C857 601 814 601 771.2 601C728.3 601 685.7 601 642.8 601C600 601 557 601 514.2 601C471.3 601 428.7 601 385.8 601C343 601 300 601 257.2 601C214.3 601 171.7 601 128.8 601C86 601 43 601 21.5 601L0 601Z" fill="#224160"></path><path d="M0 543L21.5 543.2C43 543.3 86 543.7 128.8 541.7C171.7 539.7 214.3 535.3 257.2 529.7C300 524 343 517 385.8 519.8C428.7 522.7 471.3 535.3 514.2 536C557 536.7 600 525.3 642.8 519.3C685.7 513.3 728.3 512.7 771.2 511.2C814 509.7 857 507.3 878.5 506.2L900 505L900 601L878.5 601C857 601 814 601 771.2 601C728.3 601 685.7 601 642.8 601C600 601 557 601 514.2 601C471.3 601 428.7 601 385.8 601C343 601 300 601 257.2 601C214.3 601 171.7 601 128.8 601C86 601 43 601 21.5 601L0 601Z" fill="#16243d"></path><path d="M0 554L21.5 552.2C43 550.3 86 546.7 128.8 549.8C171.7 553 214.3 563 257.2 567.3C300 571.7 343 570.3 385.8 565.5C428.7 560.7 471.3 552.3 514.2 549.2C557 546 600 548 642.8 551C685.7 554 728.3 558 771.2 559.2C814 560.3 857 558.7 878.5 557.8L900 557L900 601L878.5 601C857 601 814 601 771.2 601C728.3 601 685.7 601 642.8 601C600 601 557 601 514.2 601C471.3 601 428.7 601 385.8 601C343 601 300 601 257.2 601C214.3 601 171.7 601 128.8 601C86 601 43 601 21.5 601L0 601Z" fill="#05021c"></path></svg>